<svg xmlns="http://www.w3.org/2000/svg" width="426" height="206" viewBox="0 0 426 206" version="1.1"><path d="M 301.250 63.689 C 302.212 63.941, 303.788 63.941, 304.750 63.689 C 305.712 63.438, 304.925 63.232, 303 63.232 C 301.075 63.232, 300.288 63.438, 301.250 63.689 M 320.269 63.693 C 321.242 63.947, 322.592 63.930, 323.269 63.656 C 323.946 63.382, 323.150 63.175, 321.500 63.195 C 319.850 63.215, 319.296 63.439, 320.269 63.693 M 328.681 64.612 C 329.177 65.904, 328.989 66.122, 327.920 65.492 C 327.139 65.032, 327.360 65.636, 328.411 66.834 C 329.461 68.032, 330.586 68.723, 330.911 68.369 C 331.235 68.016, 330.963 67.534, 330.306 67.298 C 329.650 67.063, 329.343 66.270, 329.624 65.537 C 329.906 64.803, 329.661 63.908, 329.080 63.549 C 328.415 63.138, 328.267 63.533, 328.681 64.612 M 295.490 70.016 C 295.144 70.575, 294.443 70.774, 293.931 70.457 C 293.419 70.141, 293 70.653, 293 71.596 C 293 73.183, 293.149 73.176, 295 71.500 C 296.100 70.505, 297 69.535, 297 69.345 C 297 68.634, 296.096 69.036, 295.490 70.016 M 263.250 86.689 C 264.212 86.941, 265.788 86.941, 266.750 86.689 C 267.712 86.438, 266.925 86.232, 265 86.232 C 263.075 86.232, 262.288 86.438, 263.250 86.689 M 112.405 110.250 C 110.502 112.498, 110.502 112.499, 112.581 110.748 C 113.726 109.784, 115.035 109.334, 115.491 109.748 C 115.948 110.162, 115.997 109.938, 115.601 109.250 C 114.660 107.615, 114.628 107.625, 112.405 110.250 M 242.405 127.250 L 240.500 129.500 242.687 127.652 C 243.919 126.611, 245.406 126.133, 246.091 126.557 C 246.868 127.037, 247.051 126.891, 246.595 126.155 C 245.550 124.463, 244.541 124.727, 242.405 127.250 M 129.405 169.500 C 129.406 178.300, 129.559 181.766, 129.745 177.203 C 129.930 172.639, 129.929 165.439, 129.742 161.203 C 129.555 156.966, 129.404 160.700, 129.405 169.500 M 232.216 174.720 L 232.432 187.500 232.747 175.250 L 233.062 163 245 163 L 256.938 163 257.265 174.750 L 257.592 186.500 257.546 174.500 L 257.500 162.500 244.750 162.220 L 232 161.940 232.216 174.720 M 205.590 172.901 C 204.220 174.415, 204.137 174.956, 205.185 175.561 C 205.908 175.979, 206.162 175.948, 205.748 175.491 C 205.334 175.035, 205.741 173.838, 206.653 172.831 C 207.564 171.824, 208.085 171, 207.810 171 C 207.535 171, 206.536 171.855, 205.590 172.901 M 307.606 203.152 C 308.648 204.611, 309.700 205.611, 309.944 205.374 C 310.189 205.138, 309.337 203.944, 308.050 202.722 L 305.712 200.500 307.606 203.152" stroke="none" fill="#9fabc5" fill-rule="evenodd"/><path d="M 264 3 C 262.667 3.862, 262.667 3.969, 264 3.969 C 264.825 3.969, 266.175 3.533, 267 3 C 268.333 2.138, 268.333 2.031, 267 2.031 C 266.175 2.031, 264.825 2.467, 264 3 M 235.412 37.058 C 229.012 37.918, 225.584 40.147, 222.459 45.480 C 219.154 51.119, 219.284 53.044, 222.750 49.801 C 229.228 43.741, 237.046 42.391, 244.573 46.035 C 248.724 48.045, 253.146 53.302, 254.491 57.825 C 255.177 60.132, 255.211 60.122, 258.772 56.561 C 265.709 49.624, 275.957 49.256, 283.078 55.689 C 287.146 59.365, 288.017 58.848, 285.589 54.200 C 283.695 50.575, 279.134 46.367, 275.685 45.064 C 269.695 42.801, 260.356 44.452, 257.128 48.345 C 255.493 50.316, 254 50.498, 254 48.728 C 254 46.509, 247.946 40.010, 244.153 38.158 C 241.353 36.791, 239.312 36.534, 235.412 37.058 M 335 51 C 336.375 51.440, 338.175 51.839, 339 51.885 C 340.333 51.960, 340.333 51.862, 339 51 C 338.175 50.467, 336.375 50.069, 335 50.115 L 332.500 50.199 335 51 M 317.308 60.010 C 316.103 60.495, 314.327 62.154, 313.361 63.696 C 312.395 65.238, 311.498 66.658, 311.367 66.852 C 311.236 67.046, 310.100 66.483, 308.842 65.602 C 305.238 63.078, 299.728 63.544, 296.636 66.636 C 293.004 70.269, 293.337 71.123, 297.548 68.976 C 301.678 66.870, 306.438 67.685, 309.139 70.960 C 310.748 72.911, 310.803 72.890, 312.060 69.856 C 313.444 66.514, 318.278 63.007, 321.500 63.007 C 322.600 63.007, 324.974 63.906, 326.776 65.005 L 330.053 67.003 328.601 64.196 C 327.211 61.508, 323.243 58.930, 320.703 59.063 C 320.041 59.098, 318.514 59.524, 317.308 60.010 M 105.703 74.142 C 51.936 139.595, 0.020 203.750, 0.011 204.750 C 0.003 205.702, 4.132 206, 17.358 206 L 34.715 206 74.563 156.922 L 114.411 107.844 116.145 110.172 C 117.098 111.452, 134.903 133.425, 155.711 159 L 193.543 205.500 211.272 205.773 C 221.022 205.923, 229 205.788, 229 205.473 C 229 205.157, 223.422 198.091, 216.604 189.770 L 204.207 174.640 224.225 149.820 C 235.234 136.169, 244.525 125.009, 244.871 125.019 C 245.217 125.029, 260.125 143.234, 278 165.474 L 310.500 205.910 325.333 205.955 C 334.194 205.982, 340.032 205.621, 339.833 205.059 C 339.383 203.787, 267.382 115.516, 263.146 111.043 C 261.301 109.094, 256.652 103.338, 252.815 98.250 C 248.979 93.162, 245.450 89, 244.975 89 C 244.500 89, 231.887 103.963, 216.946 122.250 C 202.005 140.537, 189.593 155.398, 189.363 155.272 C 189.133 155.147, 172.706 135.122, 152.858 110.772 C 133.009 86.423, 116.194 65.889, 115.491 65.142 C 114.431 64.016, 112.752 65.560, 105.703 74.142 M 260.171 83.509 C 258.531 84.889, 256.698 87.477, 256.098 89.259 C 255.028 92.437, 255.040 92.459, 256.753 90.367 C 259.031 87.585, 262.219 86, 265.534 86 C 268.618 86, 275 91.790, 275 94.587 C 275 96.112, 275.403 95.997, 277.750 93.799 C 282.674 89.189, 287.412 89.306, 291.926 94.151 L 294.044 96.424 292.922 93.206 C 290.704 86.842, 282.548 83.827, 277.367 87.455 C 275.461 88.791, 275.178 88.702, 273.930 86.370 C 272.437 83.579, 268.208 81, 265.126 81 C 264.041 81, 261.811 82.129, 260.171 83.509 M 99 169.500 L 99 185 114 185 L 129 185 129 169.500 L 129 154 114 154 L 99 154 99 169.500 M 233 175 L 233 187 245 187 L 257 187 257 175 L 257 163 245 163 L 233 163 233 175" stroke="none" fill="#0c2c7c" fill-rule="evenodd"/></svg>